<svg xmlns="http://www.w3.org/2000/svg" width="60" height="60" viewBox="0 0 60 60"><defs><mask id="h3cjb" width="2.01" height="2.01" x="-1" y="-1"><path fill="#fff" d="M5.8 3.8h48.4v48.4H5.8z"/><path d="M30 4c13.255 0 24 10.745 24 24S43.255 52 30 52 6 41.255 6 28 16.745 4 30 4z"/></mask><filter id="h3cja" width="78.2" height="80.2" x="-9.1" y="-11.1" filterUnits="userSpaceOnUse"><feOffset dy="2" in="SourceGraphic" result="FeOffset1045Out"/><feGaussianBlur in="FeOffset1045Out" result="FeGaussianBlur1046Out" stdDeviation="1.9600000000000002 1.9600000000000002"/></filter></defs><g><g><g filter="url(#h3cja)"><path fill="none" stroke="#212121" stroke-opacity=".35" stroke-width=".4" d="M30 4c13.255 0 24 10.745 24 24S43.255 52 30 52 6 41.255 6 28 16.745 4 30 4z" mask="url(&quot;#h3cjb&quot;)"/><path fill="#212121" fill-opacity=".35" d="M30 4c13.255 0 24 10.745 24 24S43.255 52 30 52 6 41.255 6 28 16.745 4 30 4z"/></g><path fill="#fff" d="M30 4c13.255 0 24 10.745 24 24S43.255 52 30 52 6 41.255 6 28 16.745 4 30 4z"/></g></g></svg>